<?xml version="1.0" encoding="utf-8"?>
<svg viewBox="92.22 0.95 27.56 40.068" xmlns="http://www.w3.org/2000/svg">
  <defs>
    <linearGradient gradientUnits="userSpaceOnUse" x1="326.659" y1="343.993" x2="326.659" y2="413.306" id="gradient-12" gradientTransform="matrix(0, 6.553169, -6.553169, 0, 3226.196533, -1739.576777)">
      <stop offset="0" style="stop-color: rgb(108, 140, 253);"/>
      <stop offset="1" style="stop-color: rgb(235, 109, 94);"/>
    </linearGradient>
  </defs>
  <g transform="matrix(0.519537, 0, 0, 0.519537, -160.002762, -175.738525)">
    <title>Texts</title>
    <path d="M 524.258 348.245 Q 524.258 344.544 528.807 344.544 Q 533.433 344.544 533.433 348.245 L 533.433 402.909 Q 533.433 406.61 528.807 406.61 Q 524.258 406.61 524.258 402.909 Z M 500.819 402.909 Q 500.819 406.61 496.193 406.61 Q 491.644 406.61 491.644 402.909 L 491.644 348.245 Q 491.644 344.544 496.193 344.544 Q 500.819 344.544 500.819 348.245 Z M 518.861 374.305 Q 518.861 377.003 517.01 378.854 Q 515.16 380.704 512.461 380.704 Q 509.84 380.704 507.99 378.854 Q 506.139 377.003 506.139 374.305 Q 506.139 371.606 507.99 369.756 Q 509.84 367.905 512.461 367.905 Q 515.16 367.905 517.01 369.756 Q 518.861 371.606 518.861 374.305 Z" style="fill: url(#gradient-12); paint-order: fill; white-space: pre;"/>
  </g>
</svg>