<?xml version="1.0" encoding="utf-8"?>
<svg viewBox="0 0 212 41.968" xmlns="http://www.w3.org/2000/svg">
  <defs>
    <linearGradient gradientUnits="userSpaceOnUse" x1="326.659" y1="343.993" x2="326.659" y2="413.306" id="gradient-12" gradientTransform="matrix(0, 5.887163, -5.887163, 0, 2741.170572, -1524.10702)">
      <stop offset="0" style="stop-color: rgb(108, 140, 253);"/>
      <stop offset="1" style="stop-color: rgb(235, 109, 94);"/>
    </linearGradient>
    <linearGradient gradientUnits="userSpaceOnUse" x1="530.868" y1="339.925" x2="530.868" y2="417.374" id="gradient-13" gradientTransform="matrix(0, 5.26873, -5.26873, 0, 2507.000753, -2416.724048)">
      <stop offset="0" style="stop-color: rgb(108, 140, 253);"/>
      <stop offset="1" style="stop-color: rgb(235, 109, 94);"/>
    </linearGradient>
  </defs>
  <g transform="matrix(0.519537, 0, 0, 0.519537, -160.002762, -175.738525)">
    <title>Texts</title>
    <path d="M 337.678 351.5 Q 337.678 348.173 341.767 348.173 Q 345.925 348.173 345.925 351.5 L 345.925 400.633 Q 345.925 403.96 341.767 403.96 Q 337.678 403.96 337.678 400.633 Z M 316.611 400.633 Q 316.611 403.96 312.453 403.96 Q 308.364 403.96 308.364 400.633 L 308.364 351.5 Q 308.364 348.173 312.453 348.173 Q 316.611 348.173 316.611 351.5 Z M 332.827 374.923 Q 332.827 377.349 331.164 379.012 Q 329.501 380.675 327.075 380.675 Q 324.719 380.675 323.056 379.012 Q 321.392 377.349 321.392 374.923 Q 321.392 372.498 323.056 370.834 Q 324.719 369.171 327.075 369.171 Q 329.501 369.171 331.164 370.834 Q 332.827 372.498 332.827 374.923 Z" style="fill: url(#gradient-12); paint-order: fill; white-space: pre;"/>
    <path d="M 369.105 401.38 Q 363.492 401.38 359.196 398.92 Q 354.899 396.46 352.439 392.129 Q 349.979 387.797 349.979 382.184 Q 349.979 376.501 352.439 372.17 Q 354.899 367.839 359.196 365.379 Q 363.492 362.919 369.105 362.919 Q 374.649 362.919 378.946 365.379 Q 383.243 367.839 385.703 372.17 Q 388.163 376.501 388.163 382.184 Q 388.163 387.797 385.737 392.129 Q 383.312 396.46 379.015 398.92 Q 374.719 401.38 369.105 401.38 Z M 369.105 395.143 Q 372.709 395.143 375.481 393.48 Q 378.253 391.817 379.812 388.906 Q 381.372 385.996 381.372 382.184 Q 381.372 378.373 379.812 375.427 Q 378.253 372.482 375.481 370.819 Q 372.709 369.156 369.105 369.156 Q 365.502 369.156 362.73 370.819 Q 359.958 372.482 358.364 375.427 Q 356.77 378.373 356.77 382.184 Q 356.77 385.996 358.364 388.906 Q 359.958 391.817 362.73 393.48 Q 365.502 395.143 369.105 395.143 Z" style="fill: url(#gradient-13); paint-order: fill; white-space: pre;"/>
    <path d="M 426.687 401.172 Q 425.163 401.172 424.158 400.167 Q 423.153 399.163 423.153 397.638 L 423.153 380.59 Q 423.153 376.64 421.698 374.145 Q 420.242 371.65 417.782 370.438 Q 415.322 369.225 412.134 369.225 Q 409.224 369.225 406.867 370.403 Q 404.511 371.581 403.125 373.556 Q 401.739 375.531 401.739 378.095 L 397.373 378.095 Q 397.373 373.729 399.487 370.299 Q 401.601 366.869 405.273 364.859 Q 408.946 362.849 413.52 362.849 Q 418.302 362.849 422.079 364.894 Q 425.856 366.938 428.038 370.888 Q 430.221 374.838 430.221 380.59 L 430.221 397.638 Q 430.221 399.163 429.217 400.167 Q 428.212 401.172 426.687 401.172 Z M 398.205 401.172 Q 396.68 401.172 395.675 400.167 Q 394.671 399.163 394.671 397.638 L 394.671 366.73 Q 394.671 365.136 395.675 364.166 Q 396.68 363.196 398.205 363.196 Q 399.799 363.196 400.769 364.166 Q 401.739 365.136 401.739 366.73 L 401.739 397.638 Q 401.739 399.163 400.769 400.167 Q 399.799 401.172 398.205 401.172 Z" style="fill: url(#gradient-13); paint-order: fill; white-space: pre;"/>
    <path d="M 455.744 401.38 Q 449.992 401.38 445.522 398.92 Q 441.052 396.46 438.523 392.129 Q 435.993 387.797 435.993 382.184 Q 435.993 376.501 438.384 372.17 Q 440.775 367.839 445.002 365.379 Q 449.229 362.919 454.704 362.919 Q 460.11 362.919 463.99 365.31 Q 467.871 367.7 469.915 371.893 Q 471.96 376.086 471.96 381.56 Q 471.96 382.877 471.059 383.743 Q 470.158 384.61 468.772 384.61 L 440.844 384.61 L 440.844 379.066 L 468.564 379.066 L 465.723 381.006 Q 465.654 377.541 464.337 374.804 Q 463.02 372.066 460.595 370.472 Q 458.169 368.878 454.704 368.878 Q 450.754 368.878 447.947 370.611 Q 445.141 372.343 443.685 375.358 Q 442.23 378.373 442.23 382.184 Q 442.23 385.996 443.963 388.975 Q 445.695 391.955 448.744 393.688 Q 451.794 395.42 455.744 395.42 Q 457.892 395.42 460.144 394.623 Q 462.396 393.826 463.782 392.787 Q 464.822 392.025 466.035 391.99 Q 467.247 391.955 468.148 392.718 Q 469.326 393.757 469.396 395.005 Q 469.465 396.252 468.287 397.153 Q 465.931 399.024 462.431 400.202 Q 458.931 401.38 455.744 401.38 Z" style="fill: url(#gradient-13); paint-order: fill; white-space: pre;"/>
    <path d="M 490.775 401.38 Q 485.924 401.38 481.801 399.89 Q 477.678 398.4 475.391 396.113 Q 474.351 395.005 474.524 393.584 Q 474.698 392.163 475.876 391.262 Q 477.262 390.154 478.613 390.327 Q 479.964 390.5 480.935 391.54 Q 482.113 392.856 484.711 394 Q 487.31 395.143 490.498 395.143 Q 494.517 395.143 496.631 393.826 Q 498.745 392.51 498.814 390.431 Q 498.883 388.352 496.839 386.827 Q 494.795 385.303 489.389 384.332 Q 482.39 382.946 479.237 380.174 Q 476.084 377.402 476.084 373.383 Q 476.084 369.849 478.163 367.527 Q 480.242 365.206 483.499 364.062 Q 486.756 362.919 490.29 362.919 Q 494.864 362.919 498.398 364.374 Q 501.933 365.829 504.012 368.393 Q 504.982 369.502 504.912 370.715 Q 504.843 371.928 503.734 372.759 Q 502.626 373.522 501.101 373.244 Q 499.576 372.967 498.537 371.997 Q 496.804 370.334 494.795 369.71 Q 492.785 369.086 490.152 369.086 Q 487.102 369.086 484.989 370.126 Q 482.875 371.165 482.875 373.175 Q 482.875 374.422 483.533 375.427 Q 484.192 376.432 486.132 377.229 Q 488.073 378.026 491.815 378.788 Q 497.012 379.828 500.027 381.422 Q 503.041 383.016 504.358 385.129 Q 505.675 387.243 505.675 390.015 Q 505.675 393.203 503.977 395.767 Q 502.279 398.331 498.987 399.856 Q 495.696 401.38 490.775 401.38 Z" style="fill: url(#gradient-13); paint-order: fill; white-space: pre;"/>
    <path d="M 556.455 417.319 Q 554.93 417.319 553.925 416.314 Q 552.92 415.309 552.92 413.785 L 552.92 382.184 Q 552.99 376.709 555.484 372.343 Q 557.979 367.978 562.276 365.448 Q 566.572 362.919 571.978 362.919 Q 577.453 362.919 581.749 365.448 Q 586.046 367.978 588.575 372.343 Q 591.105 376.709 591.105 382.184 Q 591.105 387.659 588.783 391.99 Q 586.462 396.321 582.442 398.851 Q 578.423 401.38 573.364 401.38 Q 569.275 401.38 565.845 399.682 Q 562.414 397.984 559.989 395.074 L 559.989 413.785 Q 559.989 415.309 559.019 416.314 Q 558.049 417.319 556.455 417.319 Z M 571.978 395.143 Q 575.512 395.143 578.284 393.445 Q 581.056 391.747 582.685 388.802 Q 584.313 385.857 584.313 382.184 Q 584.313 378.442 582.685 375.497 Q 581.056 372.551 578.284 370.854 Q 575.512 369.156 571.978 369.156 Q 568.513 369.156 565.706 370.854 Q 562.9 372.551 561.306 375.497 Q 559.712 378.442 559.712 382.184 Q 559.712 385.857 561.306 388.802 Q 562.9 391.747 565.706 393.445 Q 568.513 395.143 571.978 395.143 Z" style="fill: url(#gradient-13); paint-order: fill; white-space: pre;"/>
    <path d="M 601.023 377.402 Q 601.023 373.244 603.067 369.953 Q 605.112 366.661 608.577 364.72 Q 612.042 362.78 616.2 362.78 Q 620.358 362.78 622.402 364.131 Q 624.447 365.483 623.961 367.354 Q 623.754 368.324 623.164 368.844 Q 622.575 369.364 621.813 369.502 Q 621.051 369.641 620.15 369.433 Q 615.715 368.532 612.18 369.294 Q 608.646 370.057 606.602 372.136 Q 604.557 374.215 604.557 377.402 Z M 601.092 401.103 Q 599.429 401.103 598.528 400.237 Q 597.627 399.37 597.627 397.638 L 597.627 366.661 Q 597.627 364.998 598.528 364.097 Q 599.429 363.196 601.092 363.196 Q 602.825 363.196 603.691 364.062 Q 604.557 364.928 604.557 366.661 L 604.557 397.638 Q 604.557 399.301 603.691 400.202 Q 602.825 401.103 601.092 401.103 Z" style="fill: url(#gradient-13); paint-order: fill; white-space: pre;"/>
    <path d="M 631.519 401.103 Q 629.995 401.103 628.99 400.098 Q 627.985 399.093 627.985 397.569 L 627.985 366.73 Q 627.985 365.136 628.99 364.166 Q 629.995 363.196 631.519 363.196 Q 633.113 363.196 634.083 364.166 Q 635.053 365.136 635.053 366.73 L 635.053 397.569 Q 635.053 399.093 634.083 400.098 Q 633.113 401.103 631.519 401.103 Z M 631.519 357.028 Q 629.648 357.028 628.297 355.677 Q 626.945 354.325 626.945 352.454 Q 626.945 350.583 628.297 349.232 Q 629.648 347.881 631.519 347.881 Q 633.39 347.881 634.742 349.232 Q 636.093 350.583 636.093 352.454 Q 636.093 354.325 634.742 355.677 Q 633.39 357.028 631.519 357.028 Z" style="fill: url(#gradient-13); paint-order: fill; white-space: pre;"/>
    <path d="M 661.416 401.38 Q 655.872 401.38 651.541 398.851 Q 647.21 396.321 644.75 391.99 Q 642.29 387.659 642.29 382.184 Q 642.29 376.571 644.715 372.205 Q 647.141 367.839 651.368 365.379 Q 655.595 362.919 661.07 362.919 Q 665.159 362.919 668.554 364.478 Q 671.95 366.037 674.653 369.156 Q 675.623 370.264 675.346 371.443 Q 675.068 372.621 673.821 373.522 Q 672.851 374.215 671.673 373.972 Q 670.495 373.729 669.524 372.759 Q 666.129 369.156 661.07 369.156 Q 657.536 369.156 654.833 370.784 Q 652.13 372.413 650.606 375.323 Q 649.081 378.234 649.081 382.184 Q 649.081 385.926 650.64 388.837 Q 652.199 391.747 654.971 393.445 Q 657.743 395.143 661.416 395.143 Q 663.842 395.143 665.678 394.554 Q 667.515 393.965 669.039 392.718 Q 670.148 391.817 671.326 391.713 Q 672.504 391.609 673.405 392.371 Q 674.583 393.341 674.722 394.554 Q 674.861 395.767 673.89 396.737 Q 668.901 401.38 661.416 401.38 Z" style="fill: url(#gradient-13); paint-order: fill; white-space: pre;"/>
    <path d="M 699.677 401.38 Q 693.925 401.38 689.455 398.92 Q 684.985 396.46 682.456 392.129 Q 679.926 387.797 679.926 382.184 Q 679.926 376.501 682.317 372.17 Q 684.708 367.839 688.935 365.379 Q 693.163 362.919 698.637 362.919 Q 704.043 362.919 707.924 365.31 Q 711.804 367.7 713.849 371.893 Q 715.893 376.086 715.893 381.56 Q 715.893 382.877 714.992 383.743 Q 714.091 384.61 712.705 384.61 L 684.777 384.61 L 684.777 379.066 L 712.497 379.066 L 709.656 381.006 Q 709.587 377.541 708.27 374.804 Q 706.953 372.066 704.528 370.472 Q 702.102 368.878 698.637 368.878 Q 694.687 368.878 691.881 370.611 Q 689.074 372.343 687.619 375.358 Q 686.163 378.373 686.163 382.184 Q 686.163 385.996 687.896 388.975 Q 689.628 391.955 692.678 393.688 Q 695.727 395.42 699.677 395.42 Q 701.825 395.42 704.078 394.623 Q 706.33 393.826 707.716 392.787 Q 708.755 392.025 709.968 391.99 Q 711.181 391.955 712.082 392.718 Q 713.26 393.757 713.329 395.005 Q 713.398 396.252 712.22 397.153 Q 709.864 399.024 706.364 400.202 Q 702.865 401.38 699.677 401.38 Z" style="fill: url(#gradient-13); paint-order: fill; white-space: pre;"/>
  </g>
  <g transform="matrix(1.83329, 0, 0, 1.83329, 93.756409, -0.88251)" style="">
    <path d="M 18.175 3.724 C 18.589 3.724 18.925 3.388 18.925 2.974 C 18.925 2.56 18.589 2.224 18.175 2.224 C 12.698 2.068 3.143 2.162 5.175 2.22 C 4.761 2.22 4.425 2.555 4.425 2.97 C 4.425 3.384 4.761 3.72 5.175 3.72 L 18.175 3.724 Z M 11.573 21.623 L 11.675 21.63 C 12.055 21.63 12.369 21.347 12.418 20.981 L 12.425 20.88 L 12.424 7.195 L 16.146 10.915 C 16.412 11.181 16.829 11.205 17.122 10.987 L 17.207 10.915 C 17.473 10.649 17.497 10.232 17.279 9.938 L 17.206 9.854 L 12.209 4.858 C 11.943 4.592 11.526 4.567 11.233 4.785 L 11.149 4.857 L 6.145 9.854 C 5.852 10.147 5.852 10.621 6.144 10.915 C 6.41 11.181 6.827 11.206 7.121 10.988 L 7.205 10.915 L 10.924 7.202 L 10.925 20.88 C 10.925 21.259 11.207 21.573 11.573 21.623 Z" style="fill: rgb(235, 102, 94);"/>
  </g>
</svg>