<?xml version="1.0" encoding="utf-8"?>
<svg viewBox="434.475 352.932 155.05 62.136" xmlns="http://www.w3.org/2000/svg">
  <g id="title" style="font-style:normal;font-weight:normal;font-size:72px;line-height:1;font-family:'Brandmark Sans 10';font-variant-ligatures:normal;text-align:center;text-anchor:middle">
    <path id="path654916" style="font-style:normal;font-weight:normal;font-size:72px;line-height:1;font-family:'Brandmark Sans 10';font-variant-ligatures:normal;text-align:center;text-anchor:middle" d="m 450.53619,-38.808 c -10.584,0 -19.224,8.856 -19.224,19.8 V 8.856 c 0,1.656 1.368,3.024 2.952,3.024 1.656,0 3.024,-1.368 3.024,-3.024 V -4.752 c 3.456,3.384 8.136,5.472 13.248,5.472 10.584,0 19.224,-8.856 19.224,-19.728 0,-10.944 -8.64,-19.8 -19.224,-19.8 z m 0,33.552 c -7.272,0 -13.248,-6.192 -13.248,-13.752 0,-7.632 5.976,-13.824 13.248,-13.824 7.344,0 13.248,6.192 13.248,13.824 0,7.56 -5.904,13.752 -13.248,13.752 z" stroke-width="0.5" stroke-linejoin="miter" stroke-miterlimit="2" fill="#eb6d5e" stroke="#eb6d5e" transform="translate(0 302.932) translate(434.475189 61.448) scale(1) translate(-431.31219 38.808)"/>
    <path id="path654918" style="font-style:normal;font-weight:normal;font-size:72px;line-height:1;font-family:'Brandmark Sans 10';font-variant-ligatures:normal;text-align:center;text-anchor:middle" d="m 493.06119,-38.448 c -8.928,1.656 -15.696,9.72 -15.696,19.44 v 16.056 c 0,1.584 1.368,2.952 2.952,2.952 1.656,0 3.024,-1.368 3.024,-2.952 v -16.056 c 0,-6.84 4.68,-12.456 10.872,-13.608 1.44,-0.288 2.376,-1.512 2.376,-2.952 0,-1.872 -1.656,-3.24 -3.528,-2.88 z" stroke-width="0.5" stroke-linejoin="miter" stroke-miterlimit="2" fill="#cb7586" stroke="#cb7586" transform="translate(0 302.932) translate(478.528189 61.750284) scale(1) translate(-477.36519 38.505716)"/>
    <path id="path654920" style="font-style:normal;font-weight:normal;font-size:72px;line-height:1;font-family:'Brandmark Sans 10';font-variant-ligatures:normal;text-align:center;text-anchor:middle" d="m 537.79569,-21.672 c -1.224,-9.648 -9.288,-17.136 -19.08,-17.136 -10.584,0 -19.224,8.856 -19.224,19.8 0,10.872 8.64,19.728 19.224,19.728 5.976,0 11.304,-2.736 14.76,-7.128 1.584,-1.944 0.144,-4.824 -2.304,-4.824 -0.936,0 -1.8,0.432 -2.376,1.152 -2.376,2.952 -6.048,4.824 -10.08,4.824 -4.536,0 -8.496,-2.304 -10.944,-5.976 -1.008,-1.512 -1.728,-3.312 -2.088,-5.184 h 29.664 c 1.44,0 2.592,-1.152 2.592,-2.592 0,-0.936 -0.072,-1.8 -0.144,-2.664 z m -6.048,0 h -26.064 c 1.224,-6.336 6.552,-11.16 13.032,-11.16 6.48,0 11.88,4.824 13.032,11.16 z" stroke-width="0.5" stroke-linejoin="miter" stroke-miterlimit="2" fill="#ac7dae" stroke="#ac7dae" transform="translate(0 302.932) translate(498.654689 61.448) scale(1) translate(-499.49169 38.808)"/>
    <path id="path654922" style="font-style:normal;font-weight:normal;font-size:72px;line-height:1;font-family:'Brandmark Sans 10';font-variant-ligatures:normal;text-align:center;text-anchor:middle" d="m 558.75444,-5.328 c -4.104,-0.936 -7.2,-4.752 -7.2,-9.36 v -17.784 h 6.552 c 1.44,0 2.592,-1.152 2.592,-2.592 0,-1.44 -1.152,-2.664 -2.592,-2.664 h -6.552 v -9.936 c 0,-1.44 -1.152,-2.592 -2.592,-2.592 h -0.792 c -1.44,0 -2.592,1.152 -2.592,2.592 v 32.976 c 0,7.488 5.112,13.752 12.024,15.192 1.584,0.36 3.096,-0.864 3.096,-2.52 v -0.792 c 0,-1.152 -0.792,-2.232 -1.944,-2.52 z" stroke-width="0.5" stroke-linejoin="miter" stroke-miterlimit="2" fill="#8c84d5" stroke="#8c84d5" transform="translate(0 302.932) translate(542.741439 50) scale(1) translate(-545.57844 50.256)"/>
    <path id="path654924" style="font-style:normal;font-weight:normal;font-size:72px;line-height:1;font-family:'Brandmark Sans 10';font-variant-ligatures:normal;text-align:center;text-anchor:middle" d="m 591.33781,-5.976 h -16.632 l 19.08,-26.64 0.216,-0.36 c 0,-0.072 0.072,-0.072 0.072,-0.144 0.072,-0.144 0.072,-0.216 0.144,-0.288 0,-0.144 0.072,-0.216 0.072,-0.288 v -0.216 c 0,-0.144 0.072,-0.288 0.072,-0.36 v -0.072 c 0,-0.072 0,-0.144 -0.072,-0.216 v -0.288 c 0,-0.144 -0.072,-0.216 -0.072,-0.288 0,-0.144 -0.072,-0.216 -0.072,-0.288 -0.072,-0.072 -0.072,-0.216 -0.144,-0.288 l -0.144,-0.216 c -0.072,-0.072 -0.144,-0.216 -0.144,-0.288 -0.072,-0.072 -0.144,-0.144 -0.216,-0.216 l -0.216,-0.216 c -0.072,0 -0.144,-0.072 -0.216,-0.144 -0.072,-0.072 -0.216,-0.144 -0.288,-0.144 -0.072,-0.072 -0.144,-0.144 -0.216,-0.144 l -0.288,-0.072 c -0.072,-0.072 -0.216,-0.072 -0.288,-0.072 -0.072,-0.072 -0.144,-0.072 -0.216,-0.072 -0.144,0 -0.216,0 -0.36,0 h -0.072 -22.464 c -1.584,0 -2.952,1.296 -2.952,2.952 0,1.656 1.368,2.952 2.952,2.952 h 16.704 l -19.08,26.64 c -0.648,0.936 -0.792,2.16 -0.216,3.096 0.504,1.008 1.512,1.656 2.592,1.656 h 22.464 c 1.656,0 3.024,-1.368 3.024,-2.952 0,-1.656 -1.368,-3.024 -3.024,-3.024 z" stroke-width="0.5" stroke-linejoin="miter" stroke-miterlimit="2" fill="#6c8cfd" stroke="#6c8cfd" transform="translate(0 302.932) translate(561.083969 62.96) scale(1) translate(-565.92097 37.296)"/>
  </g>
</svg>